<svg xmlns="http://www.w3.org/2000/svg" viewBox="0 0 1000 2000">
  <g id="Grit-Parts">
    <path transform="scale(1.7263435366521995 1.9357880797411733) rotate(165.43707789995165 240.8059010242869 1612.6034462740968) translate(240.8059010242869,1612.6034462740968)" d="M2.391,3.48892289 C3.913,2.62492289 5,1.54592289 5,0.89792289 C5,-0.82807711 3.043,0.03492289 1.522,2.62492289 L0,4.99992289 L2.391,3.48892289 Z" fill="rgba(255,255,255,0.8186700291560272)"/><path transform="scale(1.0593833249276947 1.7018992663214982) rotate(200.91273789192388 354.7268937467667 621.6658994444573) translate(354.7268937467667,621.6658994444573)" d="M3.238,4 C3.619,4 4,3 4,2 L4,0 L1.905,0 L0,0 L1.143,2 C1.714,3 2.667,4 3.238,4 Z" fill="rgba(255,255,255,0.15190008776426045)"/><path transform="scale(1.76502998188182 1.29576777330963) rotate(233.63405060706788 115.85960999558354 1255.3662321511138) translate(115.85960999558354,1255.3662321511138)" d="M3.238,4 C3.619,4 4,3 4,2 L4,0 L1.905,0 L0,0 L1.143,2 C1.714,3 2.667,4 3.238,4 Z" fill="rgba(255,255,255,0.8079026601800039)"/><path transform="scale(1.1340323083776624 1.708670958058687) rotate(333.54506390814765 556.8158176047396 586.3072977733776) translate(556.8158176047396,586.3072977733776)" d="M3,9 L5,7.085 L7,5.17 L6,2.489 L5,0 L4.8,3.447 L4.6,6.894 L2.2,5.553 L0,4.213 L1.6,6.511 Z" fill="rgba(255,255,255,0.33742574491038413)"/><path transform="scale(1.0419377850714628 1.100045456685455) rotate(124.8167632815894 803.1867658227145 652.935214744518) translate(803.1867658227145,652.935214744518)" d="M3.238,4 C3.619,4 4,3 4,2 L4,0 L1.905,0 L0,0 L1.143,2 C1.714,3 2.667,4 3.238,4 Z" fill="rgba(255,255,255,0.6348890252023962)"/><path transform="scale(0.6679198992528177 1.1444071979732486) rotate(64.94526556482442 55.31089799506228 385.785488186027) translate(55.31089799506228,385.785488186027)" d="M0,5 L1.615,3.846 L3,2.5 L1.615,1.154 L0,0 L0,2.5 Z" fill="rgba(255,255,255,0.38707711174658344)"/><path transform="scale(0.6876405015285916 1.4773012251722668) rotate(95.62473265093759 556.218925731172 153.83887175872422) translate(556.218925731172,153.83887175872422)" d="M10,5.949 L10,3.077 L10,0 L8.2,0 C7.4,0 6.6,1.026 6.6,2.256 L6.6,4.513 L3.4,3.282 L0,2.051 L2.4,4.923 L4.8,8 L7.4,6.974 L10,5.949 Z" fill="rgba(255,255,255,0.6295856259393378)"/><path transform="scale(1.8258687150931903 1.2176931466518952) rotate(22.040187499646553 778.5846591407796 773.9520123476784) translate(778.5846591407796,773.9520123476784)" d="M2.391,3.48892289 C3.913,2.62492289 5,1.54592289 5,0.89792289 C5,-0.82807711 3.043,0.03492289 1.522,2.62492289 L0,4.99992289 L2.391,3.48892289 Z" fill="rgba(255,255,255,0.7457796220862496)"/><path transform="scale(1.5565596829541595 0.6552962450973914) rotate(340.9777462840762 592.362582436388 269.0925702911446) translate(592.362582436388,269.0925702911446)" d="M3,9 L5,7.085 L7,5.17 L6,2.489 L5,0 L4.8,3.447 L4.6,6.894 L2.2,5.553 L0,4.213 L1.6,6.511 Z" fill="rgba(255,255,255,0.7549904540999308)"/><path transform="scale(0.7278128526878989 1.4956616789662425) rotate(319.61221603045976 785.5474715829615 250.46209275589914) translate(785.5474715829615,250.46209275589914)" d="M0,5 L1.615,3.846 L3,2.5 L1.615,1.154 L0,0 L0,2.5 Z" fill="rgba(255,255,255,0.8525024983553116)"/><path transform="scale(0.9867046164575253 1.0116386247185098) rotate(187.42665069594926 732.9672723951912 1176.565877189684) translate(732.9672723951912,1176.565877189684)" d="M2.391,3.48892289 C3.913,2.62492289 5,1.54592289 5,0.89792289 C5,-0.82807711 3.043,0.03492289 1.522,2.62492289 L0,4.99992289 L2.391,3.48892289 Z" fill="rgba(255,255,255,0.10566029317816028)"/><path transform="scale(0.6116125685623679 1.5104334324282296) rotate(236.41810332202957 266.4147646350716 1863.1569605951968) translate(266.4147646350716,1863.1569605951968)" d="M3,9 L5,7.085 L7,5.17 L6,2.489 L5,0 L4.8,3.447 L4.6,6.894 L2.2,5.553 L0,4.213 L1.6,6.511 Z" fill="rgba(255,255,255,0.6628533326417498)"/><path transform="scale(0.5271267205453364 1.529848014613447) rotate(109.26413590746375 709.3231497974552 350.90093389110245) translate(709.3231497974552,350.90093389110245)" d="M10,5.949 L10,3.077 L10,0 L8.2,0 C7.4,0 6.6,1.026 6.6,2.256 L6.6,4.513 L3.4,3.282 L0,2.051 L2.4,4.923 L4.8,8 L7.4,6.974 L10,5.949 Z" fill="rgba(255,255,255,0.6129601205915949)"/><path transform="scale(1.1242805943393428 1.6691084213899459) rotate(17.26529917952771 798.3012766917827 1052.8629848741646) translate(798.3012766917827,1052.8629848741646)" d="M2.857,4 C4.381,4 6.286,3 6.857,2 L8,0 L5.143,0 C3.619,0 1.714,0.8 1.143,2 L0,4 L2.857,4 Z" fill="rgba(255,255,255,0.8446388240380349)"/><path transform="scale(1.3576662661464725 1.8502983220914144) rotate(20.257007146489016 36.74030034521758 1981.89167394311) translate(36.74030034521758,1981.89167394311)" d="M3,9 L5,7.085 L7,5.17 L6,2.489 L5,0 L4.8,3.447 L4.6,6.894 L2.2,5.553 L0,4.213 L1.6,6.511 Z" fill="rgba(255,255,255,0.7463887950586912)"/><path transform="scale(1.6435449920763359 0.6789579233763436) rotate(239.2034111453632 236.70509017961172 1776.3708540432704) translate(236.70509017961172,1776.3708540432704)" d="M10,5.949 L10,3.077 L10,0 L8.2,0 C7.4,0 6.6,1.026 6.6,2.256 L6.6,4.513 L3.4,3.282 L0,2.051 L2.4,4.923 L4.8,8 L7.4,6.974 L10,5.949 Z" fill="rgba(255,255,255,0.7184970327545275)"/><path transform="scale(1.8564409573194205 1.5959184217918545) rotate(202.04646324237683 97.85130989522273 707.5893771315971) translate(97.85130989522273,707.5893771315971)" d="M2.857,4 C4.381,4 6.286,3 6.857,2 L8,0 L5.143,0 C3.619,0 1.714,0.8 1.143,2 L0,4 L2.857,4 Z" fill="rgba(255,255,255,0.9427556267257531)"/><path transform="scale(0.5256522932741637 0.636378381215612) rotate(159.69552263513748 240.03229600847155 473.55268962415084) translate(240.03229600847155,473.55268962415084)" d="M3.238,4 C3.619,4 4,3 4,2 L4,0 L1.905,0 L0,0 L1.143,2 C1.714,3 2.667,4 3.238,4 Z" fill="rgba(255,255,255,0.4957350811124517)"/><path transform="scale(1.4190719229165154 1.2390279334625762) rotate(307.5627373657576 26.317620356439477 276.03181731502156) translate(26.317620356439477,276.03181731502156)" d="M3.238,4 C3.619,4 4,3 4,2 L4,0 L1.905,0 L0,0 L1.143,2 C1.714,3 2.667,4 3.238,4 Z" fill="rgba(255,255,255,0.6416973587271264)"/><path transform="scale(1.6223312516534603 1.9179787804436246) rotate(279.5115656695594 676.4994781951219 669.4055467606686) translate(676.4994781951219,669.4055467606686)" d="M1,2 C1.6,2 2,1.6 2,1 C2,0.4 1.6,0 1,0 C0.4,0 0,0.4 0,1 C0,1.6 0.4,2 1,2 Z" fill="rgba(255,255,255,0.17020260809941368)"/><path transform="scale(1.192652929368037 1.686480495555438) rotate(242.06245697531162 984.8757755802183 794.0217722802876) translate(984.8757755802183,794.0217722802876)" d="M4,6 L2.8,3.077 C1.4,-0.429 0,-1.014 0,1.713 C0,2.882 0.8,4.246 2,4.831 L4,6 Z" fill="rgba(255,255,255,0.24862411616402214)"/><path transform="scale(0.9039860435315865 0.6114822417437472) rotate(93.77938627127014 270.74096659044943 1421.242429881817) translate(270.74096659044943,1421.242429881817)" d="M3.238,4 C3.619,4 4,3 4,2 L4,0 L1.905,0 L0,0 L1.143,2 C1.714,3 2.667,4 3.238,4 Z" fill="rgba(255,255,255,0.42924015922909353)"/><path transform="scale(1.0412542585794131 1.1888604994807475) rotate(242.85010191518788 461.3162705984914 65.20464220494216) translate(461.3162705984914,65.20464220494216)" d="M3,9 L5,7.085 L7,5.17 L6,2.489 L5,0 L4.8,3.447 L4.6,6.894 L2.2,5.553 L0,4.213 L1.6,6.511 Z" fill="rgba(255,255,255,0.3262230492985858)"/><path transform="scale(1.2203129204854168 0.685531217069805) rotate(174.18609178507614 40.252313491110804 1264.3546984502384) translate(40.252313491110804,1264.3546984502384)" d="M1,2 C1.6,2 2,1.6 2,1 C2,0.4 1.6,0 1,0 C0.4,0 0,0.4 0,1 C0,1.6 0.4,2 1,2 Z" fill="rgba(255,255,255,0.8543228666196254)"/><path transform="scale(1.4733035365479472 1.376692307624536) rotate(42.22930717578464 791.8936103994794 1118.2030729692428) translate(791.8936103994794,1118.2030729692428)" d="M1,2 C1.6,2 2,1.6 2,1 C2,0.4 1.6,0 1,0 C0.4,0 0,0.4 0,1 C0,1.6 0.4,2 1,2 Z" fill="rgba(255,255,255,0.2962129433413174)"/><path transform="scale(1.3504622654287346 1.4200797433089334) rotate(185.8874501369176 958.649955361408 1634.2958058750753) translate(958.649955361408,1634.2958058750753)" d="M0,5 L1.615,3.846 L3,2.5 L1.615,1.154 L0,0 L0,2.5 Z" fill="rgba(255,255,255,0.816689869893747)"/><path transform="scale(1.7995430716276082 1.8190523020433238) rotate(99.90445306075864 356.1167652080699 219.99706892702298) translate(356.1167652080699,219.99706892702298)" d="M3,9 L5,7.085 L7,5.17 L6,2.489 L5,0 L4.8,3.447 L4.6,6.894 L2.2,5.553 L0,4.213 L1.6,6.511 Z" fill="rgba(255,255,255,0.38552684923101865)"/><path transform="scale(1.0520974313212617 0.9462197742000016) rotate(357.82749324571245 42.52550820684631 1580.3445895276118) translate(42.52550820684631,1580.3445895276118)" d="M1,2 C1.6,2 2,1.6 2,1 C2,0.4 1.6,0 1,0 C0.4,0 0,0.4 0,1 C0,1.6 0.4,2 1,2 Z" fill="rgba(255,255,255,0.8400495226415632)"/><path transform="scale(0.7774685170445138 1.277119682767401) rotate(74.1291599291589 674.5709737991942 1826.487200770237) translate(674.5709737991942,1826.487200770237)" d="M2.391,3.48892289 C3.913,2.62492289 5,1.54592289 5,0.89792289 C5,-0.82807711 3.043,0.03492289 1.522,2.62492289 L0,4.99992289 L2.391,3.48892289 Z" fill="rgba(255,255,255,0.7444046626583709)"/><path transform="scale(1.7973583572978764 1.240139569267124) rotate(83.83042987249107 799.849041260404 1705.2415982717507) translate(799.849041260404,1705.2415982717507)" d="M2.391,3.48892289 C3.913,2.62492289 5,1.54592289 5,0.89792289 C5,-0.82807711 3.043,0.03492289 1.522,2.62492289 L0,4.99992289 L2.391,3.48892289 Z" fill="rgba(255,255,255,0.4205011150349278)"/><path transform="scale(1.1676888650953228 1.6040184767529029) rotate(70.35485738147733 656.3359010497334 225.57470155731176) translate(656.3359010497334,225.57470155731176)" d="M4,6 L2.8,3.077 C1.4,-0.429 0,-1.014 0,1.713 C0,2.882 0.8,4.246 2,4.831 L4,6 Z" fill="rgba(255,255,255,0.5626493960157806)"/><path transform="scale(1.3514406418890503 1.5153550136254186) rotate(86.46240257790997 573.5870121593687 307.25840250460476) translate(573.5870121593687,307.25840250460476)" d="M3.238,4 C3.619,4 4,3 4,2 L4,0 L1.905,0 L0,0 L1.143,2 C1.714,3 2.667,4 3.238,4 Z" fill="rgba(255,255,255,0.12848738636091572)"/><path transform="scale(1.312808939740054 1.971094275828278) rotate(258.02064413933573 558.4533077888734 70.30860234884528) translate(558.4533077888734,70.30860234884528)" d="M1,2 C1.6,2 2,1.6 2,1 C2,0.4 1.6,0 1,0 C0.4,0 0,0.4 0,1 C0,1.6 0.4,2 1,2 Z" fill="rgba(255,255,255,0.44453070225572877)"/><path transform="scale(1.7850895009377892 1.5504470171981515) rotate(121.23684494228438 327.6831110572256 1814.8684002308548) translate(327.6831110572256,1814.8684002308548)" d="M10,5.949 L10,3.077 L10,0 L8.2,0 C7.4,0 6.6,1.026 6.6,2.256 L6.6,4.513 L3.4,3.282 L0,2.051 L2.4,4.923 L4.8,8 L7.4,6.974 L10,5.949 Z" fill="rgba(255,255,255,0.9338506817571013)"/><path transform="scale(1.3510174837452293 1.9679524852762467) rotate(212.88203663604668 12.706410972256332 292.90647169521924) translate(12.706410972256332,292.90647169521924)" d="M10,5.949 L10,3.077 L10,0 L8.2,0 C7.4,0 6.6,1.026 6.6,2.256 L6.6,4.513 L3.4,3.282 L0,2.051 L2.4,4.923 L4.8,8 L7.4,6.974 L10,5.949 Z" fill="rgba(255,255,255,0.13562229522454694)"/><path transform="scale(1.4390583282336364 0.6427620636884055) rotate(205.9002756701973 524.5397483906515 1840.5009055486926) translate(524.5397483906515,1840.5009055486926)" d="M2.391,3.48892289 C3.913,2.62492289 5,1.54592289 5,0.89792289 C5,-0.82807711 3.043,0.03492289 1.522,2.62492289 L0,4.99992289 L2.391,3.48892289 Z" fill="rgba(255,255,255,0.6749618475069923)"/><path transform="scale(1.238352037635991 0.7081128029382007) rotate(211.05731085214924 852.1838275631314 966.218245505925) translate(852.1838275631314,966.218245505925)" d="M3.238,4 C3.619,4 4,3 4,2 L4,0 L1.905,0 L0,0 L1.143,2 C1.714,3 2.667,4 3.238,4 Z" fill="rgba(255,255,255,0.925253110339938)"/><path transform="scale(0.7453842680218741 1.8277644035454024) rotate(197.03161006091426 77.22462778902673 876.3677023424008) translate(77.22462778902673,876.3677023424008)" d="M0,5 L1.615,3.846 L3,2.5 L1.615,1.154 L0,0 L0,2.5 Z" fill="rgba(255,255,255,0.5478053688497342)"/><path transform="scale(1.5332096342634056 1.0614248794022878) rotate(335.6431819953824 199.28655074318513 1147.5010345221604) translate(199.28655074318513,1147.5010345221604)" d="M10,5.949 L10,3.077 L10,0 L8.2,0 C7.4,0 6.6,1.026 6.6,2.256 L6.6,4.513 L3.4,3.282 L0,2.051 L2.4,4.923 L4.8,8 L7.4,6.974 L10,5.949 Z" fill="rgba(255,255,255,0.26791719569338657)"/><path transform="scale(0.61794314401332 0.6237922481486112) rotate(162.68934265202773 652.2293223828026 849.6805566123351) translate(652.2293223828026,849.6805566123351)" d="M1,2 C1.6,2 2,1.6 2,1 C2,0.4 1.6,0 1,0 C0.4,0 0,0.4 0,1 C0,1.6 0.4,2 1,2 Z" fill="rgba(255,255,255,0.42342734643488744)"/><path transform="scale(1.1081196446267436 1.150806086239628) rotate(109.4752820940474 578.4075116817157 944.5146327583532) translate(578.4075116817157,944.5146327583532)" d="M4,6 L2.8,3.077 C1.4,-0.429 0,-1.014 0,1.713 C0,2.882 0.8,4.246 2,4.831 L4,6 Z" fill="rgba(255,255,255,0.9932677951696847)"/><path transform="scale(1.9093509266773092 1.5142264656465279) rotate(294.88435710957737 439.26680908215434 277.18083310139895) translate(439.26680908215434,277.18083310139895)" d="M2.391,3.48892289 C3.913,2.62492289 5,1.54592289 5,0.89792289 C5,-0.82807711 3.043,0.03492289 1.522,2.62492289 L0,4.99992289 L2.391,3.48892289 Z" fill="rgba(255,255,255,0.45632514695925486)"/><path transform="scale(1.8176313115956917 1.85255853362783) rotate(292.422485799177 217.22973949026826 1067.637395017555) translate(217.22973949026826,1067.637395017555)" d="M2.391,3.48892289 C3.913,2.62492289 5,1.54592289 5,0.89792289 C5,-0.82807711 3.043,0.03492289 1.522,2.62492289 L0,4.99992289 L2.391,3.48892289 Z" fill="rgba(255,255,255,0.9451979921963234)"/><path transform="scale(1.467978700819153 1.5518641128058275) rotate(291.20974374371673 958.1598392200825 873.2141065008925) translate(958.1598392200825,873.2141065008925)" d="M3.238,4 C3.619,4 4,3 4,2 L4,0 L1.905,0 L0,0 L1.143,2 C1.714,3 2.667,4 3.238,4 Z" fill="rgba(255,255,255,0.8699062913157429)"/><path transform="scale(1.7768693892925531 0.6587477499809274) rotate(264.4241164360571 963.5554432645062 11.796751624019386) translate(963.5554432645062,11.796751624019386)" d="M2.391,3.48892289 C3.913,2.62492289 5,1.54592289 5,0.89792289 C5,-0.82807711 3.043,0.03492289 1.522,2.62492289 L0,4.99992289 L2.391,3.48892289 Z" fill="rgba(255,255,255,0.5357862031182232)"/><path transform="scale(1.041822422456598 0.8545167516188127) rotate(200.14317221978817 973.512192820254 497.23704131653966) translate(973.512192820254,497.23704131653966)" d="M3,9 L5,7.085 L7,5.17 L6,2.489 L5,0 L4.8,3.447 L4.6,6.894 L2.2,5.553 L0,4.213 L1.6,6.511 Z" fill="rgba(255,255,255,0.2791634807903993)"/><path transform="scale(1.4616896772370085 1.5481228015512043) rotate(286.0892572109485 264.15822646404297 1229.4868470318759) translate(264.15822646404297,1229.4868470318759)" d="M0,5 L1.615,3.846 L3,2.5 L1.615,1.154 L0,0 L0,2.5 Z" fill="rgba(255,255,255,0.9354839671252331)"/><path transform="scale(1.8906655619329646 1.9051992724170854) rotate(278.42727667336476 537.0199719124571 1791.3008958882788) translate(537.0199719124571,1791.3008958882788)" d="M2.5,3 L3.846,1.615 L5,0 L2.5,0 L0,0 L1.154,1.615 Z" fill="rgba(255,255,255,0.46409978740119406)"/><path transform="scale(1.3635245681928903 0.5255267339888575) rotate(264.8939825255747 707.8631225504311 507.03347020183554) translate(707.8631225504311,507.03347020183554)" d="M10,5.949 L10,3.077 L10,0 L8.2,0 C7.4,0 6.6,1.026 6.6,2.256 L6.6,4.513 L3.4,3.282 L0,2.051 L2.4,4.923 L4.8,8 L7.4,6.974 L10,5.949 Z" fill="rgba(255,255,255,0.5766825489678624)"/><path transform="scale(0.9312300740748829 1.9473649788131482) rotate(91.72730309677851 42.20478303129549 241.49668917210664) translate(42.20478303129549,241.49668917210664)" d="M10,5.949 L10,3.077 L10,0 L8.2,0 C7.4,0 6.6,1.026 6.6,2.256 L6.6,4.513 L3.4,3.282 L0,2.051 L2.4,4.923 L4.8,8 L7.4,6.974 L10,5.949 Z" fill="rgba(255,255,255,0.6370990383581197)"/>
  </g>
</svg>