<svg xmlns="http://www.w3.org/2000/svg">
  <symbol id="icon-linkedin" viewBox="0 0 448 512">
    <path fill="currentColor" d="M100.3 448H7.4V148.9h92.9zM53.8 108.1C24.1 108.1 0 83.5 0 53.8a53.8 53.8 0 0 1 107.6 0c0 29.7-24.1 54.3-53.8 54.3zM447.9 448h-92.7V302.4c0-34.7-.7-79.2-48.3-79.2-48.3 0-55.7 37.7-55.7 76.7V448h-92.8V148.9h89.1v40.8h1.3c12.4-23.5 42.7-48.3 87.9-48.3 94 0 111.3 61.9 111.3 142.3V448z"/>
  </symbol>

  <symbol id="icon-github" viewBox="0 0 496 512">
    <path fill="currentColor" d="M165.9 397.4c0 2-2.3 3.6-5.2 3.6-3.3 .3-5.6-1.3-5.6-3.6 0-2 2.3-3.6 5.2-3.6 3-.3 5.6 1.3 5.6 3.6zm-31.1-4.5c-.7 2 1.3 4.3 4.3 4.9 2.6 1 5.6 0 6.2-2s-1.3-4.3-4.3-5.2c-2.6-.7-5.5 .3-6.2 2.3zm44.2-1.7c-2.9 .7-4.9 2.6-4.6 4.9 .3 2 2.9 3.3 5.9 2.6 2.9-.7 4.9-2.6 4.6-4.6-.3-1.9-3-3.2-5.9-2.9zM244.8 8C106.1 8 0 113.3 0 252c0 110.9 69.8 205.8 169.5 239.2 12.8 2.3 17.3-5.6 17.3-12.1 0-6.2-.3-40.4-.3-61.4 0 0-70 15-84.7-29.8 0 0-11.4-29.1-27.8-36.6 0 0-22.9-15.7 1.6-15.4 0 0 24.9 2 38.6 25.8 21.9 38.6 58.6 27.5 72.9 20.9 2.3-16 8.8-27.1 16-33.7-55.9-6.2-112.3-14.3-112.3-110.5 0-27.5 7.6-41.3 23.6-58.9-2.6-6.5-11.1-33.3 2.6-67.9 20.9-6.5 69 27 69 27 20-5.6 41.5-8.5 62.8-8.5s42.8 2.9 62.8 8.5c0 0 48.1-33.6 69-27 13.7 34.7 5.2 61.4 2.6 67.9 16 17.7 25.8 31.5 25.8 58.9 0 96.5-58.9 104.2-114.8 110.5 9.2 7.9 17 22.9 17 46.4 0 33.7-.3 75.4-.3 83.6 0 6.5 4.6 14.4 17.3 12.1C428.2 457.8 496 362.9 496 252 496 113.3 383.5 8 244.8 8z"/>
  </symbol>

  <symbol id="icon-phone" viewBox="0 0 512 512">
    <path fill="currentColor" d="M164.9 24.6c-7.7-18.6-28-28.5-47.4-23.2l-88 24C12.1 30.2 0 46 0 64C0 311.4 200.6 512 448 512c18 0 33.8-12.1 38.6-29.5l24-88c5.3-19.4-4.6-39.7-23.2-47.4l-96-40c-16.3-6.8-35.2-2.1-46.3 11.6L304.7 368C234.3 334.7 177.3 277.7 144 207.3L193.3 167c13.7-11.2 18.4-30 11.6-46.3l-40-96z"/>
  </symbol>

  <symbol id="icon-email" viewBox="0 0 512 512">
    <path fill="currentColor" d="M48 64C21.5 64 0 85.5 0 112c0 15.1 7.1 29.3 19.2 38.4L236.8 313.6c11.4 8.5 27 8.5 38.4 0L492.8 150.4c12.1-9.1 19.2-23.3 19.2-38.4c0-26.5-21.5-48-48-48L48 64zM0 176L0 384c0 35.3 28.7 64 64 64l384 0c35.3 0 64-28.7 64-64l0-208L294.4 339.2c-22.8 17.1-54 17.1-76.8 0L0 176z"/>
  </symbol>

  <symbol id="icon-upwork" viewBox="0 0 641 512">
    <path fill="currentColor" d="M494.7 295.6c-50.3 0-83.5-38.9-92.8-53.9c11.9-95.3 46.8-125.4 92.8-125.4c45.5 0 80.9 36.4 80.9 89.7s-35.4 89.7-80.9 89.7zm0-237.8c-81.9 0-127.8 53.4-141 108.4c-14.9-28-25.9-65.5-34.5-100.3H206v141c0 51.1-23.3 89-68.8 89s-71.6-37.8-71.6-89l.5-141H.8v141c0 41.1 13.3 78.4 37.6 105.1c25 27.5 59.2 41.8 98.8 41.8c78.8 0 133.8-60.4 133.8-146.9V112.1c8.2 31.2 27.8 91.1 65.3 143.6l-35 199.4h66.4l23.1-141.3c7.6 6.3 15.7 12 24.2 17c22.2 14 47.7 21.9 73.9 22.8c0 0 4 .2 6.1 .2c81.2 0 145.9-62.9 145.9-147.8s-64.8-148.1-146-148.1z"/>
  </symbol>

  <symbol id="icon-upwork-square" viewBox="0 0 448 512">
    <path fill="currentColor" d="M56 32l336 0c30.9 0 56 25.1 56 56l0 336c0 30.9-25.1 56-56 56L56 480c-30.9 0-56-25.1-56-56L0 88C0 57.1 25.1 32 56 32zM270.9 274.2c6.6-52.9 25.9-69.5 51.4-69.5c25.3 0 44.9 20.2 44.9 49.7s-19.7 49.7-44.9 49.7c-27.9 0-46.3-21.5-51.4-29.9zm-26.7-41.8c-8.2-15.5-14.3-36.3-19.2-55.6l-29.7 0-33.2 0 0 78.1c0 28.4-12.9 49.4-38.2 49.4s-39.8-20.9-39.8-49.3l.3-78.1-36.2 0 0 78.1c0 22.8 7.4 43.5 20.9 58.2c13.9 15.2 32.8 23.2 54.8 23.2c43.7 0 74.2-33.5 74.2-81.5l0-52.5c4.6 17.3 15.4 50.5 36.2 79.7L215 392.6l36.8 0 12.8-78.4c4.2 3.5 8.7 6.6 13.4 9.4c12.3 7.8 26.4 12.2 40.9 12.6l.1 0c.5 0 1.1 0 1.6 0c.6 0 1.1 0 1.7 0c45.1 0 80.9-34.9 80.9-81.9s-35.9-82.2-80.9-82.2c-45.4 0-70.9 29.7-78.1 60.1z"/>
  </symbol>

  <symbol id="icon-circle-xmark" viewBox="0 0 384 512">
    <path fill="currentColor" d="M342.6 150.6c12.5-12.5 12.5-32.8 0-45.3s-32.8-12.5-45.3 0L192 210.7 86.6 105.4c-12.5-12.5-32.8-12.5-45.3 0s-12.5 32.8 0 45.3L146.7 256 41.4 361.4c-12.5 12.5-12.5 32.8 0 45.3s32.8 12.5 45.3 0L192 301.3 297.4 406.6c12.5 12.5 32.8 12.5 45.3 0s12.5-32.8 0-45.3L237.3 256 342.6 150.6z"/>
  </symbol>

  <symbol id="icon-hamburger" viewBox="0 0 512 512">
    <path fill="currentColor" d="M464 256H48a48 48 0 0 0 0 96h416a48 48 0 0 0 0-96zm16 128H32a16 16 0 0 0 -16 16v16a64 64 0 0 0 64 64h352a64 64 0 0 0 64-64v-16a16 16 0 0 0 -16-16zM58.6 224h394.7c34.6 0 54.6-43.9 34.8-75.9C448 83.2 359.6 32.1 256 32c-103.5 .1-192 51.2-232.2 116.1C4 180.1 24.1 224 58.6 224zM384 112a16 16 0 1 1 -16 16 16 16 0 0 1 16-16zM256 80a16 16 0 1 1 -16 16 16 16 0 0 1 16-16zm-128 32a16 16 0 1 1 -16 16 16 16 0 0 1 16-16z"/>
  </symbol>
</svg>